Good evening there

Here is our second remastered version of "Internal Affairs" DVD movie.
But this time,we made however a new DVDrip as HD.1080p as preview release for this new one.

Source : Orginal DVD in mpeg-2

Remastered to mkv h264 in true hd.1080p (Full screen resolution)

Spoken language : English* and French** that have been also remastered respectively from :

AC3-5.1 448 kbps and/or AC3-2.0 192 kbps

 to dual DTS-5.1/6-channels/48 Khz/16 Bit/1411 kbps

Result is very acceptable but not perfect indeed so do not expect a too perfect video quality then.
Q = 14-15

This is a good opportunity to rediscovering this movie so .
Great film with Richard Gere and Andy Garcia and more again.

Status : Preview or PreRC1

See imdb right here : http://www.imdb.com/title/tt0099850/

...

More details about this preview :


    Complete name : Internal_Affairs.(1990).(M.Figgis).Remastered_DVDrip-H264-HD.1080p[)(]Dts-5.1-(En,Fr)-Preview.mkv

    Format : Matroska
    Format version : Version 2
    File size : 15.7 GiB
    Duration : 1h 50mn
    Overall bit rate mode : Variable
    Overall bit rate : 20.4 Mbps
    Writing application : Lavf51.12.1
    Writing library : Lavf51.12.1

  Video #1
    ID : 1
    Format : AVC
    Format/Info : Advanced Video Codec
    Format profile : Baseline@L4.0
    Format settings, CABAC : No
    Format settings, ReFrames : 1 frame
    Format settings, GOP : M=1, N=12
    Codec ID : V_MPEG4/ISO/AVC
    Duration : 1h 50mn
    Bit rate mode : Variable
    Bit rate : 12.1 Mbps
    Maximum bit rate : 18.0 Mbps
    Width : 1 920 pixels
    Height : 1 080 pixels
    Display aspect ratio : 16:9
    Frame rate mode : Constant
    Frame rate : 25.000 fps
    Original frame rate : 24.000 fps
    Color space : YUV
    Chroma subsampling : 4:2:0
    Bit depth : 8 bits
    Scan type : Progressive
    Bits/(Pixel*Frame) : 0.234
    Stream size : 9.30 GiB (59%)
    Default : Yes
    Forced : No

  Audio #2 (English)
    ID : 2
    Format : DTS
    Format/Info : Digital Theater Systems
    Mode : 16
    Format settings, Endianness : Big
    Codec ID : A_DTS
    Duration : 1h 50mn
    Bit rate mode : Constant
    Bit rate : 3 968 Kbps
    Channel(s) : 6 channels
    Channel positions : Front: L C R, Side: L R, LFE
    Sampling rate : 48.0 KHz
    Bit depth : 16 bits
    Compression mode : Lossy
    Stream size : 3.05 GiB (19%)
    Default : Yes
    Forced : No

  Audio #3 (French)
    ID : 3
    Format : DTS
    Format/Info : Digital Theater Systems
    Mode : 16
    Format settings, Endianness : Big
    Codec ID : A_DTS
    Duration : 1h 50mn
    Bit rate mode : Constant
    Bit rate : 3 968 Kbps
    Channel(s) : 6 channels
    Channel positions : Front: L C R, Side: L R, LFE
    Sampling rate : 48.0 KHz
    Bit depth : 16 bits
    Compression mode : Lossy
    Stream size : 3.05 GiB (19%)
    Default : Yes
    Forced : No

A better enhanced version is expected in a few weeks for sure.

See yourself and decide so.

Enjoy and seed,please.

Best regards

PS : we will post a few screenshots where you do know as usual of course asap